HIERARCHY
ROOT Hips
{
	OFFSET 0.00000 0.00000 0.00000
	CHANNELS 6 Xposition Yposition Zposition Zrotation Yrotation Xrotation 
	JOINT LHipJoint
	{
		OFFSET 0 0 0
		CHANNELS 3 Zrotation Yrotation Xrotation
		JOINT LeftUpLeg
		{
			OFFSET 1.57358 -1.76629 0.73362
			CHANNELS 3 Zrotation Yrotation Xrotation
			JOINT LeftLeg
			{
				OFFSET 2.40600 -6.61045 0.00000
				CHANNELS 3 Zrotation Yrotation Xrotation
				JOINT LeftFoot
				{
					OFFSET 2.66168 -7.31291 0.00000
					CHANNELS 3 Zrotation Yrotation Xrotation
					JOINT LeftToeBase
					{
						OFFSET 0.20870 -0.57341 2.12506
						CHANNELS 3 Zrotation Yrotation Xrotation
						End Site
						{
							OFFSET 0.00000 -0.00000 1.10557
						}
					}
				}
			}
		}
	}
	JOINT RHipJoint
	{
		OFFSET 0 0 0
		CHANNELS 3 Zrotation Yrotation Xrotation
		JOINT RightUpLeg
		{
			OFFSET -1.49299 -1.76629 0.73362
			CHANNELS 3 Zrotation Yrotation Xrotation
			JOINT RightLeg
			{
				OFFSET -2.43663 -6.69460 0.00000
				CHANNELS 3 Zrotation Yrotation Xrotation
				JOINT RightFoot
				{
					OFFSET -2.62959 -7.22474 0.00000
					CHANNELS 3 Zrotation Yrotation Xrotation
					JOINT RightToeBase
					{
						OFFSET -0.25784 -0.70841 2.21862
						CHANNELS 3 Zrotation Yrotation Xrotation
						End Site
						{
							OFFSET -0.00000 -0.00000 1.16452
						}
					}
				}
			}
		}
	}
	JOINT LowerBack
	{
		OFFSET 0 0 0
		CHANNELS 3 Zrotation Yrotation Xrotation
		JOINT Spine
		{
			OFFSET -0.00034 2.12399 -0.25450
			CHANNELS 3 Zrotation Yrotation Xrotation
			JOINT Spine1
			{
				OFFSET 0.05594 2.14379 -0.03318
				CHANNELS 3 Zrotation Yrotation Xrotation
				JOINT Neck
				{
					OFFSET 0 0 0
					CHANNELS 3 Zrotation Yrotation Xrotation
					JOINT Neck1
					{
						OFFSET -0.09835 1.62725 0.24211
						CHANNELS 3 Zrotation Yrotation Xrotation
						JOINT Head
						{
							OFFSET 0.10849 1.66041 -0.22648
							CHANNELS 3 Zrotation Yrotation Xrotation
							End Site
							{
								OFFSET 0.04385 1.68267 -0.10541
							}
						}
					}
				}
				JOINT LeftShoulder
				{
					OFFSET 0 0 0
					CHANNELS 3 Zrotation Yrotation Xrotation
					JOINT LeftArm
					{
						OFFSET 3.29108 0.79398 -0.68179
						CHANNELS 3 Zrotation Yrotation Xrotation
						JOINT LeftForeArm
						{
							OFFSET 5.15310 -0.00000 -0.00000
							CHANNELS 3 Zrotation Yrotation Xrotation
							JOINT LeftHand
							{
								OFFSET 3.75138 -0.00000 -0.00000
								CHANNELS 3 Zrotation Yrotation Xrotation
								JOINT LeftFingerBase
								{
									OFFSET 0 0 0
									CHANNELS 3 Zrotation Yrotation Xrotation
									JOINT LeftHandIndex1
									{
										OFFSET 0.52917 -0.00000 0.00000
										CHANNELS 3 Zrotation Yrotation Xrotation
										End Site
										{
											OFFSET 0.42663 -0.00000 0.00000
										}
									}
								}
								JOINT LThumb
								{
									OFFSET 0 0 0
									CHANNELS 3 Zrotation Yrotation Xrotation
									End Site
									{
										OFFSET 0.43315 -0.00000 0.43315
									}
								}
							}
						}
					}
				}
				JOINT RightShoulder
				{
					OFFSET 0 0 0
					CHANNELS 3 Zrotation Yrotation Xrotation
					JOINT RightArm
					{
						OFFSET -3.07414 1.06285 -0.44338
						CHANNELS 3 Zrotation Yrotation Xrotation
						JOINT RightForeArm
						{
							OFFSET -5.29613 -0.00000 0.00000
							CHANNELS 3 Zrotation Yrotation Xrotation
							JOINT RightHand
							{
								OFFSET -3.76144 -0.00000 -0.00000
								CHANNELS 3 Zrotation Yrotation Xrotation
								JOINT RightFingerBase
								{
									OFFSET 0 0 0
									CHANNELS 3 Zrotation Yrotation Xrotation
									JOINT RightHandIndex1
									{
										OFFSET -0.74732 -0.00000 0.00000
										CHANNELS 3 Zrotation Yrotation Xrotation
										End Site
										{
											OFFSET -0.60251 -0.00000 0.00000
										}
									}
								}
								JOINT RThumb
								{
									OFFSET 0 0 0
									CHANNELS 3 Zrotation Yrotation Xrotation
									End Site
									{
										OFFSET -0.61171 -0.00000 0.61171
									}
								}
							}
						}
					}
				}
			}
		}
	}
}
MOTION
Frames: 12
Frame Time: .0083333
-0.009900 17.263600 10.081800 -5.788700 -7.172500 2.980000 0.000000 0.000000 0.000000 -5.668700 -18.102100 -27.755500 1.211400 6.982200 19.662500 -0.030300 10.854000 -14.989700 0.010100 0.649600 1.785100 0.000000 0.000000 0.000000 30.544200 2.075000 12.617500 -0.354600 -3.825900 10.587300 -0.548500 -0.068900 -14.019900 -0.065200 1.647000 -4.531200 5.405700 2.627400 5.693400 3.073000 3.992200 -0.647500 -0.190000 1.899800 -3.717900 -8.942400 -3.202100 -17.071300 5.283700 -3.309100 22.591000 2.916000 -1.675300 10.285900 0.000000 0.000000 0.000000 -93.100800 7.514200 10.620400 11.155800 -18.526600 -1.825100 -0.000000 -0.000000 14.834500 15.310700 24.943800 6.586000 -7.125000 0.000000 -0.000000 -15.218400 55.073000 -3.829700 0.000000 0.000000 0.000000 83.323400 5.602000 21.325700 -19.698800 30.277700 -5.378700 0.000000 0.000000 2.400000 -14.485300 8.820500 -2.268500 7.125000 -0.000000 -0.000000 8.928000 -20.921500 5.213900
0.005600 17.255400 10.244500 -5.672500 -7.192100 2.966500 0.000000 0.000000 0.000000 -6.106200 -17.472200 -27.622500 1.185400 6.909400 19.447300 0.005300 10.179900 -14.583000 0.002100 0.292600 0.804000 0.000000 0.000000 0.000000 30.317900 1.999900 13.108200 -0.374300 -3.929600 10.878800 -0.552300 -0.094500 -14.076700 -0.158000 2.561100 -7.059200 5.374100 2.641800 5.608000 3.005400 4.000700 -0.660400 -0.238800 1.904800 -3.680000 -8.915900 -3.149700 -17.157900 5.302800 -3.243500 22.727000 2.929700 -1.641000 10.345800 -0.000000 -0.000000 0.000000 -93.135500 7.644100 10.646400 11.170200 -18.548600 -1.829700 -0.000000 -0.000000 14.602800 15.382400 25.556500 6.768500 -7.125000 0.000000 -0.000000 -15.469700 55.684100 -4.127100 -0.000000 -0.000000 0.000000 83.569900 5.726200 20.798300 -19.442400 29.964700 -5.250000 0.000000 0.000000 2.431000 -14.514700 9.144900 -2.356200 7.125000 -0.000000 -0.000000 8.896800 -20.589700 5.262600
0.026000 17.250600 10.403000 -5.764900 -7.155100 3.095800 0.000000 0.000000 0.000000 -6.375900 -16.721200 -27.693800 1.180900 6.896900 19.410300 0.024900 9.528400 -13.993800 0.000500 0.147300 0.404800 0.000000 0.000000 0.000000 30.277200 1.910900 13.375600 -0.395200 -4.036400 11.179000 -0.541600 0.081400 -13.877800 -0.226000 3.060100 -8.446000 5.628300 2.643600 5.402200 2.957200 4.003300 -0.691900 -0.418600 1.902500 -3.576500 -8.816500 -3.163300 -17.079400 5.224400 -3.275900 22.645800 2.879100 -1.656600 10.300900 -0.000000 -0.000000 0.000000 -93.051800 7.984900 11.252500 11.399700 -18.898300 -1.903400 -0.000000 -0.000000 14.125800 15.397900 26.196700 6.931900 -7.125000 0.000000 -0.000000 -15.806200 56.308800 -4.461700 -0.000000 -0.000000 0.000000 83.849700 5.861800 20.165500 -19.524100 30.064700 -5.290800 0.000000 0.000000 3.677000 -13.275700 7.263400 -1.708600 7.125000 -0.000000 -0.000000 9.866300 -22.550600 5.406500
0.045200 17.250200 10.562900 -5.620200 -7.056800 3.064400 0.000000 0.000000 0.000000 -7.053800 -15.839500 -27.693400 1.209400 6.976600 19.646000 0.037400 8.758000 -13.158500 0.000200 0.092800 0.255000 0.000000 0.000000 0.000000 30.006500 1.802900 13.785600 -0.410000 -4.110300 11.387100 -0.511100 0.280100 -13.413000 -0.208500 2.939600 -8.110700 5.548200 2.600600 5.335600 2.932100 3.931400 -0.641200 -0.390100 1.871100 -3.492700 -8.832800 -3.215300 -17.339700 5.202900 -3.315300 22.673300 2.867600 -1.675500 10.363800 0.000000 0.000000 0.000000 -93.141500 7.973900 11.073600 11.428800 -18.942600 -1.912800 -0.000000 -0.000000 14.538700 15.113100 26.135100 6.784100 -7.125000 0.000000 -0.000000 -16.063300 56.191800 -4.491000 0.000000 0.000000 0.000000 83.929700 6.123000 19.824000 -19.352700 29.854500 -5.205200 0.000000 0.000000 3.827000 -13.222700 7.285500 -1.706700 7.125000 -0.000000 -0.000000 9.903500 -22.530000 5.432300
0.063700 17.242800 10.732500 -5.534400 -6.846200 2.900900 0.000000 0.000000 0.000000 -7.747200 -14.946500 -27.526500 1.253800 7.098800 20.008400 0.052700 7.833800 -12.212000 0.000400 0.136900 0.376200 0.000000 0.000000 0.000000 29.841900 1.572300 14.361600 -0.424900 -4.183300 11.592900 -0.488000 0.204100 -13.129500 -0.229400 3.082800 -8.509400 5.537600 2.559800 5.325000 2.923000 3.868700 -0.535500 -0.385700 1.844200 -3.379600 -8.978400 -3.267500 -17.531000 5.391800 -3.373900 22.561100 2.949100 -1.688800 10.370300 -0.000000 -0.000000 0.000000 -93.240500 7.571000 10.399200 11.137500 -18.498800 -1.819300 -0.000000 -0.000000 15.225500 15.220500 24.911700 6.537900 -7.125000 0.000000 -0.000000 -15.292800 55.024200 -3.830700 -0.000000 -0.000000 0.000000 84.029100 6.267600 19.471000 -19.172700 29.632700 -5.116000 0.000000 0.000000 3.350000 -13.840400 8.111100 -1.990900 7.125000 -0.000000 -0.000000 9.418100 -21.670900 5.345600
0.086900 17.231400 10.910500 -5.571900 -6.687500 2.725800 0.000000 0.000000 0.000000 -8.343600 -14.027700 -27.263000 1.296900 7.215300 20.354700 0.077200 6.784700 -11.363300 0.000900 -0.193800 -0.532400 0.000000 0.000000 0.000000 29.748100 1.257400 14.908400 -0.451300 -4.309900 11.950200 -0.489100 0.272800 -13.120600 -0.288900 3.456800 -9.553200 5.720600 2.523300 5.219400 2.944700 3.816000 -0.413000 -0.451600 1.821300 -3.185100 -9.085800 -3.321900 -17.656900 5.461300 -3.425100 22.563300 2.984300 -1.711700 10.402900 -0.000000 -0.000000 0.000000 -93.323800 7.136900 9.784600 10.786000 -17.959500 -1.709400 -0.000000 -0.000000 15.866500 15.091400 24.269700 6.324800 -7.125000 0.000000 -0.000000 -15.096600 54.372700 -3.538000 -0.000000 -0.000000 0.000000 84.224300 6.103900 18.958000 -19.271700 29.754900 -5.165000 0.000000 0.000000 3.236100 -14.183300 8.328600 -2.096500 7.125000 -0.000000 -0.000000 9.162300 -21.435700 5.246200
0.113500 17.226200 11.092200 -5.362700 -6.650200 2.596400 0.000000 0.000000 0.000000 -9.159900 -13.236500 -27.020700 1.350600 7.357000 20.777500 0.093100 5.770900 -10.494300 0.013300 -0.745300 -2.048300 0.000000 0.000000 0.000000 29.289900 0.928200 15.408600 -0.476800 -4.428100 12.284200 -0.475700 0.584800 -12.838800 -0.354600 3.825900 -10.587300 5.676700 2.529600 4.930600 2.885100 3.789900 -0.315600 -0.469700 1.816700 -2.921200 -9.113700 -3.376500 -17.605300 5.456900 -3.498500 22.584700 2.977300 -1.749200 10.407700 -0.000000 -0.000000 0.000000 -93.382100 7.113800 9.789900 10.748500 -17.901800 -1.697800 -0.000000 -0.000000 16.004900 14.655900 24.883200 6.279600 -7.125000 0.000000 -0.000000 -15.846900 54.887200 -3.921300 -0.000000 -0.000000 0.000000 84.453900 5.886700 18.355700 -19.312400 29.805000 -5.185200 0.000000 0.000000 3.391600 -14.029400 7.978200 -1.986300 7.125000 -0.000000 -0.000000 9.287100 -21.798200 5.242100
0.136900 17.234100 11.270700 -4.971900 -6.704500 2.489400 0.000000 0.000000 0.000000 -9.986200 -12.777300 -26.761800 1.401500 7.488700 21.171600 0.066700 5.124200 -9.162900 0.036200 -1.228100 -3.376600 0.000000 0.000000 0.000000 28.701700 0.867000 15.869900 -0.508200 -4.569700 12.685300 -0.441800 0.647400 -12.347300 -0.391000 4.015000 -11.118800 5.404500 2.560500 4.781600 2.754000 3.802200 -0.353900 -0.448700 1.826900 -2.884600 -9.052500 -3.321200 -17.529400 5.443900 -3.446300 22.710100 2.972400 -1.724000 10.432700 -0.000000 -0.000000 0.000000 -93.381200 7.283800 9.937700 10.786400 -17.960100 -1.709500 -0.000000 -0.000000 15.857900 14.417200 25.367400 6.285000 -7.125000 0.000000 -0.000000 -16.345200 55.309500 -4.219200 -0.000000 -0.000000 0.000000 84.623000 5.516700 18.114200 -19.361600 29.865600 -5.209700 0.000000 0.000000 3.390600 -14.197700 7.862100 -1.982100 7.125000 -0.000000 -0.000000 9.170200 -21.909300 5.150900
0.162300 17.250700 11.450800 -4.618300 -6.668600 2.320300 0.000000 0.000000 0.000000 -10.750900 -12.347700 -26.479300 1.436700 7.578100 21.439900 0.030900 4.509900 -7.469000 0.061800 -1.604400 -4.413500 0.000000 0.000000 0.000000 28.164000 0.766300 16.163900 -0.564900 -4.813800 13.378400 -0.417000 0.763500 -11.955200 -0.413100 4.125700 -11.430500 5.214500 2.560500 4.761000 2.629600 3.788800 -0.397400 -0.471100 1.821100 -2.922000 -8.970900 -3.289400 -17.371100 5.392800 -3.424100 22.608100 2.942600 -1.713800 10.360900 0.000000 -0.000000 0.000000 -93.348100 7.561800 10.268500 10.950400 -18.212200 -1.760400 -0.000000 -0.000000 15.540200 14.339400 25.309000 6.236600 -7.125000 0.000000 -0.000000 -16.392000 55.238200 -4.203100 0.000000 -0.000000 0.000000 84.818900 5.114800 17.857700 -19.360000 29.863600 -5.208900 0.000000 0.000000 3.268400 -14.678700 9.041900 -2.357400 7.125000 -0.000000 -0.000000 8.782600 -20.686600 5.174000
0.186000 17.269300 11.635600 -4.317000 -6.527200 2.148600 0.000000 0.000000 0.000000 -11.477700 -11.863700 -26.171600 1.457200 7.629900 21.595400 0.014500 3.755700 -5.960500 0.084300 -1.872700 -5.154100 0.000000 0.000000 0.000000 27.783500 0.794400 16.272600 -0.651900 -5.164500 14.378200 -0.385300 0.766900 -11.481100 -0.458200 4.342300 -12.041800 5.052500 2.538600 4.711400 2.540200 3.745700 -0.422200 -0.468900 1.801500 -2.925500 -8.909000 -3.363700 -17.425900 5.277100 -3.516500 22.766200 2.879100 -1.765600 10.433400 0.000000 0.000000 0.000000 -93.338800 7.696500 10.406700 11.013400 -18.308700 -1.780100 -0.000000 -0.000000 15.597700 14.093500 25.290900 6.122000 -7.125000 0.000000 -0.000000 -16.629600 55.172500 -4.239700 0.000000 0.000000 0.000000 85.015000 4.703200 17.445800 -19.318100 29.812000 -5.188000 0.000000 0.000000 3.097100 -14.996400 10.118900 -2.694600 7.125000 -0.000000 -0.000000 8.529200 -19.571000 5.237300
0.201400 17.289400 11.816600 -3.968400 -6.527400 2.094700 0.000000 0.000000 0.000000 -12.157400 -11.371200 -25.870600 1.455900 7.626600 21.585400 0.013200 2.832600 -4.742300 0.051200 -1.460700 -4.017400 0.000000 0.000000 0.000000 27.466100 1.228200 16.131100 -0.784200 -5.653400 15.781900 -0.341700 0.534400 -10.866100 -0.534000 4.682300 -13.004500 4.643200 2.570900 4.557800 2.495300 3.754700 -0.430800 -0.282000 1.813800 -2.870100 -9.048000 -3.461700 -17.677300 5.379900 -3.628200 23.115900 2.927600 -1.817300 10.623600 -0.000000 -0.000000 0.000000 -93.341700 7.599100 10.485700 10.888300 -18.116900 -1.741000 -0.000000 -0.000000 15.642800 14.126000 25.104000 6.094500 -7.125000 0.000000 -0.000000 -16.496100 54.998600 -4.133700 -0.000000 -0.000000 0.000000 85.220000 4.438600 16.778300 -19.264400 29.745900 -5.161400 0.000000 0.000000 3.258400 -14.870800 10.499000 -2.770100 7.125000 -0.000000 -0.000000 8.610500 -19.190300 5.362300
0.217000 17.307300 11.995000 -3.482000 -6.580300 1.976000 0.000000 0.000000 0.000000 -12.994000 -10.866600 -25.339900 1.431500 7.565000 21.400500 0.013800 1.876700 -3.665800 0.085700 -1.888700 -5.198200 0.000000 0.000000 0.000000 27.019800 1.700100 15.858700 -0.974700 -6.285000 17.613600 -0.298400 0.179200 -10.256500 -0.598900 4.954000 -13.777500 4.082400 2.603500 4.552300 2.407600 3.769400 -0.521800 -0.065300 1.826800 -2.989800 -9.116700 -3.469500 -17.378700 5.454700 -3.666300 23.055900 2.961500 -1.835500 10.550500 0.000000 0.000000 0.000000 -93.379700 7.565400 10.386900 10.750700 -17.905200 -1.698500 -0.000000 -0.000000 15.693700 14.516300 25.568100 6.376100 -7.125000 0.000000 -0.000000 -16.354500 55.523000 -4.307500 0.000000 0.000000 0.000000 85.367900 4.145100 16.415000 -19.058000 29.490700 -5.059400 0.000000 0.000000 3.273800 -14.773700 10.258700 -2.689000 7.125000 -0.000000 -0.000000 8.683900 -19.440900 5.360000
